<?xml version="1.0" standalone="no"?>
<!DOCTYPE svg PUBLIC "-//W3C//DTD SVG 20010904//EN"
 "http://www.w3.org/TR/2001/REC-SVG-20010904/DTD/svg10.dtd">
<svg version="1.0" xmlns="http://www.w3.org/2000/svg"
 width="700.000000pt" height="700.000000pt" viewBox="0 0 700.000000 700.000000"
 preserveAspectRatio="xMidYMid meet">
<metadata>
Created by potrace 1.11, written by Peter Selinger 2001-2013
</metadata>
<g transform="translate(0.000000,700.000000) scale(0.100000,-0.100000)"
fill="#000000" stroke="none">
<path d="M3458 6985 c-2 -1 -43 -5 -93 -9 -49 -3 -103 -8 -120 -10 -475 -64
-918 -318 -1215 -696 -91 -115 -93 -119 -152 -220 -62 -108 -49 -82 -260 -545
-87 -192 -165 -364 -173 -381 -8 -16 -27 -59 -43 -95 -16 -35 -43 -93 -60
-129 -75 -161 -92 -202 -86 -211 3 -5 0 -9 -6 -9 -13 0 -13 2 40 -165 21 -66
66 -208 100 -315 34 -107 70 -220 80 -250 l17 -55 -31 -7 c-17 -4 -44 -10 -61
-13 -16 -3 -38 -8 -47 -11 -9 -3 -27 -7 -40 -9 -13 -3 -94 -21 -181 -42 l-158
-37 -63 -116 c-35 -63 -78 -142 -96 -175 -42 -78 -89 -164 -160 -295 -101
-186 -119 -220 -317 -585 -108 -198 -209 -385 -225 -415 -17 -30 -48 -87 -69
-127 l-39 -72 2 -543 3 -543 572 0 c387 1 573 -3 574 -10 0 -5 1 -206 2 -445
l2 -434 2345 -1 2345 0 5 445 5 445 570 0 570 0 3 549 2 550 -112 205 c-61
113 -125 231 -141 261 -16 30 -53 98 -82 150 -29 52 -67 122 -85 155 -18 33
-45 83 -60 110 -42 76 -79 143 -118 215 -19 36 -62 115 -95 175 -33 61 -70
128 -82 150 -156 287 -192 349 -210 355 -11 5 -123 32 -250 60 -126 29 -234
56 -238 60 -5 4 23 108 63 231 39 123 94 295 121 382 l50 158 -44 102 c-91
209 -526 1155 -562 1222 -143 268 -354 500 -610 670 -305 203 -621 305 -987
318 -54 2 -99 3 -100 2z"/>
</g>
</svg>
